PathFileType	4	(X/Y/Z)	testWalking.trc	
DataRate	CameraRate	NumFrames	NumMarkers	Units	OrigDataRate	OrigDataStartFrame	OrigNumFrames
120	120	13	28	mm	120	226	183
Frame#	Time	RSHO			LSHO			C7			RASI			LASI			SACR			RTHAP			RTHAD			RTHLD			RLEPI			RTIAP			RTIAD			RLMAL			RHEEL			RP1MT			RP5MT			RTOE			LTHAP			LTHAD			LTHLD			LLEPI			LTIAP			LTIAD			LLMAL			LHEEL			LP1MT			LP5MT			LTOE			
		X1	Y1	Z1	X2	Y2	Z2	X3	Y3	Z3	X4	Y4	Z4	X5	Y5	Z5	X6	Y6	Z6	X7	Y7	Z7	X8	Y8	Z8	X9	Y9	Z9	X10	Y10	Z10	X11	Y11	Z11	X12	Y12	Z12	X13	Y13	Z13	X14	Y14	Z14	X15	Y15	Z15	X16	Y16	Z16	X17	Y17	Z17	X18	Y18	Z18	X19	Y19	Z19	X20	Y20	Z20	X21	Y21	Z21	X22	Y22	Z22	X23	Y23	Z23	X24	Y24	Z24	X25	Y25	Z25	X26	Y26	Z26	X27	Y27	Z27	X28	Y28	Z28	

92	0.75833	1168.75269	1450.42981	185.33281	1113.98926	1458.57996	-183.59003	1091.86292	1532.80884	1.94623	1171.94324	997.87024	153.66545	1171.30676	985.38617	-118.31879	987.51337	1025.72559	8.26920	1168.66101	687.12823	89.06538	1133.91992	587.64227	96.54848	1063.41272	619.08533	156.88719	1034.75916	508.28809	134.79167	1050.74487	351.13168	58.26172	1032.49512	233.17393	48.92664	968.09912	89.78748	80.68571	919.60632	52.28915	28.03749	1090.49292	34.70045	124.48055	1118.27258	40.81208	3.25105	1167.69202	49.30181	46.28943	1326.21436	738.42346	-92.05476	1360.11597	664.90259	-99.40721	1281.10010	639.55646	-167.25537	1312.20825	549.88367	-153.96455	1292.48608	394.41125	-73.90440	1242.38123	297.96088	-69.19126	1131.85791	175.44966	-102.97150	1073.57190	161.32619	-41.82732	1222.84729	57.66673	-140.48775	1259.15247	64.80533	-25.69539	1290.36206	54.44639	-66.72912	
93	0.76667	1180.66418	1449.29358	184.52254	1123.95996	1456.83301	-183.97083	1103.29236	1531.89734	1.33493	1179.66199	996.14337	153.32741	1181.24121	983.70209	-118.37583	997.50000	1025.10730	7.90331	1176.71655	685.43860	89.91075	1140.69189	586.47125	96.15474	1070.29907	618.56836	156.73335	1040.74377	507.97311	134.55431	1054.73242	350.58350	57.95396	1035.15210	232.89180	48.76877	968.73230	90.21040	80.61555	919.81927	52.81023	27.65770	1090.59119	34.69500	124.45415	1118.33728	40.47663	3.21304	1167.61694	48.56059	46.13597	1337.11487	739.36255	-89.98591	1371.44336	666.23297	-97.67287	1293.23706	640.31421	-166.25354	1324.56750	550.16187	-152.84293	1311.61365	393.08008	-73.27930	1266.80505	294.06821	-68.86021	1162.57239	165.79515	-103.02554	1105.79834	147.98242	-41.79509	1260.74548	53.93118	-141.40936	1297.02881	62.20098	-27.35532	1328.57019	54.88395	-68.20768	
94	0.77500	1192.59814	1447.83875	183.58232	1133.96619	1455.09985	-184.38406	1114.67896	1531.11377	0.65178	1183.48816	992.96729	151.44106	1191.33362	982.21051	-118.45688	1007.60400	1024.36584	7.63702	1184.87048	683.60870	90.59953	1147.27795	585.17957	95.71352	1077.15430	618.01959	156.64006	1046.64856	507.65103	134.30766	1058.74536	349.97943	57.72311	1037.55151	232.52841	48.38347	969.30109	90.65303	80.41707	920.04187	53.37307	27.26143	1090.69629	34.69884	124.42223	1118.66907	40.27753	3.44632	1167.94470	48.33371	46.14423	1347.83167	739.87939	-87.88580	1382.24365	667.01501	-95.96167	1304.82788	640.66498	-165.14722	1336.05383	549.93292	-151.72379	1330.28906	391.52402	-72.66139	1291.14111	290.12552	-68.57286	1194.79248	156.25551	-103.03637	1138.69910	134.85222	-42.08542	1298.85669	50.80447	-142.36563	1335.57410	60.28293	-28.85289	1366.96350	55.19655	-69.63484	
95	0.78333	1204.61890	1446.47876	182.62239	1144.03711	1453.40857	-184.82941	1126.14954	1530.13855	-0.01015	1196.04504	992.53967	152.38435	1201.55408	980.87360	-118.63515	1017.86273	1023.52820	7.44461	1193.03455	681.69263	91.26476	1153.79358	583.34210	96.30589	1084.01575	617.41656	156.49239	1052.50085	507.28232	134.06151	1062.85950	349.37369	57.50722	1039.93640	232.13754	48.07378	969.86823	91.18074	80.17415	920.31049	54.01328	26.88710	1090.78198	34.72422	124.39113	1119.23901	40.43025	3.79807	1168.46350	48.34712	46.22136	1357.28247	740.24384	-86.22657	1392.53357	667.23682	-94.36919	1315.79114	640.56836	-163.77306	1346.74512	549.15179	-150.55493	1348.43225	389.72086	-72.10890	1315.33350	286.19073	-68.37357	1227.82690	147.12163	-103.08884	1172.38757	121.92268	-42.31839	1337.15759	48.43702	-143.36945	1374.17053	59.73349	-29.60703	1405.18811	56.46285	-70.99245	
96	0.79167	1216.73511	1445.31128	181.72609	1154.19910	1451.84070	-185.30231	1137.77295	1528.98779	-0.64825	1209.08997	992.12695	153.97472	1211.80310	979.60419	-118.96651	1028.29553	1022.66461	7.33040	1201.16431	679.77557	91.77245	1160.53076	581.48926	97.03221	1090.86877	616.73096	156.28700	1058.37915	506.90622	133.84444	1066.92224	348.75833	57.29662	1042.32495	231.77441	47.87431	970.49231	91.76584	79.96968	920.59937	54.72124	26.53764	1090.85803	34.73219	124.35265	1119.51697	40.61987	3.87941	1168.78711	48.13696	46.23909	1366.44482	739.92920	-84.72235	1402.28845	666.82849	-92.87296	1326.11353	639.98181	-162.01102	1356.78247	547.78241	-149.22943	1366.04651	387.75415	-71.55882	1339.34277	282.38443	-68.26505	1260.82495	138.44537	-103.46716	1206.78857	109.45314	-42.69273	1375.62708	46.96992	-144.35231	1412.17297	60.67525	-29.70740	1443.08411	59.34229	-72.38002	
97	0.80000	1228.93408	1444.13843	180.85201	1164.46875	1450.39697	-185.81799	1149.44836	1527.80566	-1.25499	1221.33911	991.37561	154.94304	1222.32910	978.05237	-119.18180	1038.89197	1021.79089	7.23460	1209.26965	677.83289	92.11263	1167.63721	579.98285	97.44188	1097.70618	616.04858	156.13011	1064.26758	506.50671	133.63091	1070.94202	348.12512	57.13387	1044.68176	231.47878	47.64394	971.07593	92.38440	79.80946	920.88831	55.46104	26.24510	1090.94250	34.73594	124.31505	1119.70996	40.52565	3.92036	1168.98108	47.85470	46.23445	1375.61304	738.87769	-83.43439	1411.60339	665.74915	-91.44972	1335.52075	638.65002	-160.23096	1365.98340	545.88715	-147.82626	1383.14465	385.68298	-71.00684	1363.07935	278.79514	-68.26586	1293.65100	130.28297	-104.38879	1241.67517	97.75960	-43.51595	1414.15125	46.54894	-145.46854	1449.32861	62.70928	-30.46609	1480.57190	63.31493	-73.51229	
98	0.80833	1241.26306	1442.91089	179.93648	1174.77368	1448.94763	-186.37897	1161.08569	1526.56567	-1.83662	1232.31689	990.19403	154.08928	1233.06799	976.30090	-119.33534	1049.61523	1020.90491	7.14758	1217.23242	675.87860	92.26939	1174.97278	578.55408	97.87535	1104.59534	615.36121	155.89803	1070.22949	506.03391	133.37230	1075.04626	347.46985	57.03310	1047.07324	231.16498	47.33217	971.69086	93.00397	79.79881	921.23779	56.21454	26.13841	1091.03076	34.75450	124.27632	1120.02246	40.32437	4.08000	1169.12744	47.58385	46.24139	1384.51843	737.21606	-82.45402	1420.52942	663.94934	-90.17081	1344.12585	636.59167	-158.55374	1374.21643	543.41089	-146.45969	1399.62183	383.50363	-70.47621	1386.47058	275.53442	-68.34940	1326.70691	122.97163	-105.61259	1276.89697	87.02688	-44.86746	1452.60754	47.47805	-146.75485	1486.19531	65.67049	-31.62624	1517.66162	68.34908	-74.32481	
99	0.81667	1253.68494	1441.56250	178.91243	1185.11487	1447.44067	-186.99295	1172.73767	1525.22705	-2.45317	1243.00696	988.70715	152.97014	1243.61255	975.29791	-119.85530	1060.46130	1019.95569	7.03508	1225.04419	673.91931	92.33675	1182.15491	577.03821	98.05388	1111.65698	614.55255	155.62480	1076.32458	505.50931	133.09142	1079.17261	346.72583	56.83711	1049.54102	230.83234	47.02783	972.41003	93.60908	79.93642	921.48090	57.05242	25.75645	1091.12756	34.78542	124.24931	1120.23474	40.23864	4.18579	1169.29358	47.30890	46.27205	1393.07251	734.86377	-81.81915	1429.06726	661.31378	-89.14634	1352.13184	633.95050	-156.92807	1381.67786	540.27655	-144.94748	1415.42932	381.27676	-69.95129	1409.46497	272.68707	-68.50283	1360.34155	116.86166	-106.86272	1312.34705	77.38775	-46.69135	1490.99585	49.87414	-147.77844	1522.78638	69.89744	-32.35127	1554.21167	74.72375	-74.87932	
100	0.82500	1266.17419	1440.12622	177.80531	1195.56494	1445.92773	-187.64824	1184.48889	1523.76025	-3.12274	1253.86157	986.97571	152.33315	1254.20679	974.66602	-120.64655	1071.45203	1018.86487	6.83710	1232.92126	672.00061	92.33037	1189.10974	575.41333	98.01558	1118.90002	613.64813	155.43150	1082.52551	504.93582	132.81252	1083.36011	345.95847	56.53128	1052.04480	230.54683	46.72449	973.04919	94.25943	79.91191	921.59100	58.01197	25.00583	1091.23499	34.82756	124.22319	1120.37158	40.20189	4.21045	1169.48181	47.02496	46.30887	1401.40649	731.73413	-81.48828	1437.21509	657.82953	-88.30021	1359.48621	630.59723	-155.40652	1388.54565	536.53876	-143.06091	1430.71375	379.09216	-69.46639	1432.03320	270.39447	-68.81036	1394.05200	111.94743	-108.40411	1347.96216	69.04195	-48.79466	1529.12842	53.55758	-148.46179	1558.36877	75.71738	-32.80783	1589.77039	82.62522	-75.09492	
101	0.83333	1278.73779	1438.66858	176.68913	1206.12756	1444.40967	-188.34346	1196.30896	1522.23328	-3.87099	1264.78101	985.07928	151.72218	1265.19702	973.50854	-121.28435	1082.60815	1017.60797	6.54582	1240.82202	670.09149	92.17760	1196.07874	573.77246	97.85713	1126.23950	612.68610	155.25294	1088.88623	504.32806	132.48384	1087.65320	345.21112	56.20163	1054.60327	230.27109	46.44098	973.66669	94.98100	79.69746	921.91705	59.00845	24.71091	1091.31323	34.87057	124.16469	1120.53369	40.13688	4.21243	1169.65833	46.72397	46.32306	1409.60229	727.77295	-81.32333	1444.81067	653.48999	-87.36521	1366.21899	626.46448	-153.99226	1395.05017	532.18695	-140.94609	1445.65332	377.11780	-69.06821	1454.08350	268.80228	-69.28233	1427.07214	108.30315	-110.32059	1383.33838	62.30671	-51.09682	1566.34546	58.52689	-149.10207	1592.60474	83.13697	-33.21927	1623.91565	91.97594	-75.18471	
102	0.84167	1291.33643	1437.11829	175.53450	1216.75403	1442.82288	-189.09660	1208.17310	1520.65381	-4.64999	1275.74023	983.05920	151.06514	1276.58020	972.02856	-121.75937	1093.84827	1016.20911	6.17407	1248.71167	668.16516	91.93925	1203.20422	572.09454	97.61330	1133.69055	611.65460	155.09398	1095.46277	503.64789	132.09013	1092.04309	344.41501	55.84766	1057.27063	229.98840	46.14688	974.35291	95.78324	79.42683	922.38965	60.00954	24.60782	1091.33936	34.91647	124.08931	1120.75732	40.07510	4.21428	1169.84607	46.40324	46.30817	1417.60706	723.01086	-81.23415	1451.75476	648.24548	-86.30319	1372.38452	621.64624	-152.73390	1401.40295	527.28003	-138.79140	1460.13452	375.43719	-68.69049	1475.36890	267.98834	-69.88698	1459.13684	106.11676	-112.52556	1417.91760	57.31244	-53.57571	1601.82739	64.97063	-149.74976	1625.19824	91.88331	-33.72636	1656.33960	102.62681	-75.55671	
103	0.85000	1304.02344	1435.43494	174.31053	1227.44238	1441.13367	-189.85789	1220.09766	1518.90271	-5.40591	1286.80261	980.90247	150.36708	1288.14917	970.36157	-122.27721	1105.05457	1014.63574	5.75073	1256.76062	666.25745	91.61839	1210.58521	570.39844	97.33559	1141.34912	610.57672	154.82225	1102.26453	502.84076	131.67482	1096.57971	343.54697	55.49315	1060.05469	229.70869	45.77332	975.01807	96.62473	79.11562	922.83990	61.14667	24.24948	1091.36829	34.95770	124.01271	1121.03601	40.03126	4.23550	1170.05322	46.07581	46.30611	1425.34521	717.38464	-81.14188	1457.96130	642.11279	-85.06530	1378.03406	616.18109	-151.63168	1407.51526	521.99982	-136.65247	1473.82275	374.09201	-68.17329	1495.66016	267.96576	-70.52711	1489.94775	105.40319	-114.94234	1451.28271	54.03203	-56.24246	1635.29932	72.82996	-150.34625	1655.80286	101.56207	-34.26678	1686.75342	114.24342	-75.98071	
104	0.85833	1316.82776	1433.62476	173.08058	1238.27563	1439.33423	-190.60948	1232.08447	1517.01440	-6.21518	1298.01733	978.63086	149.66969	1299.80603	968.49512	-122.92648	1116.15271	1012.87903	5.23955	1264.86218	664.31860	91.67656	1218.33350	568.90674	97.01170	1149.25171	609.47699	154.35509	1109.26733	502.01721	131.21364	1101.29883	342.65869	55.09782	1062.95996	229.41083	45.43234	975.77795	97.57169	78.83427	923.33362	62.53347	23.90698	1091.43506	34.99664	123.95485	1121.30884	39.99458	4.29668	1170.26355	45.74911	46.30708	1432.85474	710.86853	-80.96883	1463.36682	635.06781	-83.56724	1383.34241	610.27637	-150.88701	1413.33850	516.63837	-134.83694	1486.59204	373.13193	-67.53685	1514.83655	268.69580	-71.01725	1519.28674	106.16233	-117.08656	1483.05798	52.24662	-58.84586	1666.67627	81.92609	-150.97652	1684.24670	111.78024	-34.67888	1715.08069	126.34015	-75.73670	
